<?xml version="1.0" encoding="UTF-8" standalone="no"?><!DOCTYPE svg PUBLIC "-//W3C//DTD SVG 1.1//EN" "http://www.w3.org/Graphics/SVG/1.1/DTD/svg11.dtd"><svg width="100%" height="100%" viewBox="0 0 600 600" version="1.1" xmlns="http://www.w3.org/2000/svg" xmlns:xlink="http://www.w3.org/1999/xlink" xml:space="preserve" xmlns:serif="http://www.serif.com/" style="fill-rule:evenodd;clip-rule:evenodd;stroke-linejoin:round;stroke-miterlimit:1.41421;"><ellipse cx="300" cy="300" rx="300" ry="278.625" style="fill:#4acaa8;"/><clipPath id="_clip1"><ellipse cx="300" cy="300" rx="300" ry="278.625"/></clipPath><g clip-path="url(#_clip1)"><path d="M235.145,149.743l0,133.62l151.556,-158.056c7.279,-7.625 13.475,-13.258 18.587,-16.897c5.113,-3.64 11.915,-5.459 20.407,-5.459c11.092,0 20.06,3.249 26.906,9.748c6.846,6.499 10.268,14.428 10.268,23.787c0,11.264 -5.805,22.443 -17.417,33.534l-93.845,88.906l108.143,154.936c7.625,10.745 13.345,20.147 17.157,28.206c3.813,8.059 5.719,15.901 5.719,23.526c0,8.492 -3.336,15.858 -10.008,22.097c-6.672,6.239 -15.728,9.358 -27.166,9.358c-10.745,0 -19.497,-2.296 -26.256,-6.889c-6.759,-4.592 -12.478,-10.701 -17.157,-18.327c-4.679,-7.625 -8.839,-14.558 -12.478,-20.797l-91.246,-140.378l-63.17,60.571l0,78.768c0,15.944 -3.639,27.772 -10.918,35.484c-7.279,7.712 -16.638,11.568 -28.076,11.568c-6.586,0 -12.911,-1.733 -18.977,-5.199c-6.066,-3.466 -10.745,-8.145 -14.038,-14.038c-2.426,-4.852 -3.899,-10.485 -4.419,-16.897c-0.52,-6.412 -0.78,-15.684 -0.78,-27.816l0,-283.356c0,-15.597 3.423,-27.295 10.268,-35.094c6.846,-7.799 16.161,-11.698 27.946,-11.698c11.612,0 21.013,3.856 28.206,11.568c7.192,7.712 10.788,19.454 10.788,35.224Z" style="fill:#fff;fill-rule:nonzero;"/></g></svg>